<svg width="38" height="37" viewBox="0 0 38 37" fill="none" xmlns="http://www.w3.org/2000/svg">
<g clip-path="url(#clip0_4966_1193)">
<path d="M33.125 3.40604C32.9246 3.40604 32.7242 3.48312 32.5854 3.63729L31.3675 4.85521C31.0592 5.16354 30.5812 5.16354 30.2729 4.85521L29.055 3.63729C28.7467 3.32896 28.2687 3.32896 27.9604 3.63729L26.7425 4.85521C26.4342 5.16354 25.9562 5.16354 25.6479 4.85521L24.43 3.63729C24.1217 3.32896 23.6437 3.32896 23.3354 3.63729L22.1175 4.85521C21.8092 5.16354 21.3312 5.16354 21.0229 4.85521L19.805 3.63729C19.4967 3.32896 19.0187 3.32896 18.7104 3.63729L17.4925 4.85521C17.1842 5.16354 16.7062 5.16354 16.3979 4.85521L15.1646 3.62188C14.8563 3.31354 14.3783 3.31354 14.07 3.62188L12.8521 4.85521C12.5437 5.16354 12.0658 5.16354 11.7575 4.85521L10.5396 3.62188C10.2312 3.31354 9.75333 3.31354 9.445 3.62188L8.22708 4.85521C7.91875 5.16354 7.44083 5.16354 7.1325 4.85521L5.91458 3.62188C5.77583 3.48313 5.57542 3.40604 5.375 3.40604V33.6073C5.57542 33.6073 5.77583 33.5302 5.91458 33.376L7.1325 32.1581C7.44083 31.8498 7.91875 31.8498 8.22708 32.1581L9.445 33.376C9.75333 33.6844 10.2312 33.6844 10.5396 33.376L11.7575 32.1581C12.0658 31.8498 12.5437 31.8498 12.8521 32.1581L14.07 33.376C14.3783 33.6844 14.8563 33.6844 15.1646 33.376L16.3825 32.1581C16.6908 31.8498 17.1687 31.8498 17.4771 32.1581L18.695 33.376C19.0033 33.6844 19.4812 33.6844 19.7896 33.376L21.0075 32.1581C21.3158 31.8498 21.7938 31.8498 22.1021 32.1581L23.32 33.376C23.6283 33.6844 24.1063 33.6844 24.4146 33.376L25.6325 32.1581C25.9408 31.8498 26.4188 31.8498 26.7271 32.1581L27.945 33.376C28.2533 33.6844 28.7313 33.6844 29.0396 33.376L30.2575 32.1581C30.5658 31.8498 31.0438 31.8498 31.3521 32.1581L32.57 33.376C32.7242 33.5302 32.9246 33.6073 33.1096 33.6073V3.40604H33.125ZM26.9583 26.2073H11.5417C10.6937 26.2073 10 25.5135 10 24.6656C10 23.8177 10.6937 23.124 11.5417 23.124H26.9583C27.8062 23.124 28.5 23.8177 28.5 24.6656C28.5 25.5135 27.8062 26.2073 26.9583 26.2073ZM26.9583 20.0406H11.5417C10.6937 20.0406 10 19.3469 10 18.499C10 17.651 10.6937 16.9573 11.5417 16.9573H26.9583C27.8062 16.9573 28.5 17.651 28.5 18.499C28.5 19.3469 27.8062 20.0406 26.9583 20.0406ZM26.9583 13.874H11.5417C10.6937 13.874 10 13.1802 10 12.3323C10 11.4844 10.6937 10.7906 11.5417 10.7906H26.9583C27.8062 10.7906 28.5 11.4844 28.5 12.3323C28.5 13.1802 27.8062 13.874 26.9583 13.874Z" fill="white"/>
</g>
<defs>
<clipPath id="clip0_4966_1193">
<rect width="37" height="37" fill="white" transform="translate(0.75)"/>
</clipPath>
</defs>
</svg>
