<svg width="57" height="48" viewBox="0 0 57 48" fill="none" xmlns="http://www.w3.org/2000/svg">
<g id="Logotype">
<path id="Vector" d="M17.8578 19.5632C17.0516 19.5576 14.5983 19.5426 13.3966 17.6828C12.7107 16.6213 12.6925 15.5163 12.8113 13.4178C12.9368 11.2197 13.4737 9.00108 14.407 6.82354C15.1594 5.06728 15.6132 4.00735 16.6561 3.32208C17.4947 2.77038 18.5701 2.45422 19.6062 2.45422C20.3904 2.45422 21.1225 2.62811 21.7812 2.97114C23.5108 3.87061 24.0031 5.6577 24.4795 7.3863L24.5113 7.50091C25.322 10.4404 24.7109 12.9238 24.5105 13.7395C24.1748 15.1053 23.8571 16.3952 22.7764 17.5634C21.1051 19.3687 18.8515 19.5639 17.9591 19.5639H17.8578V19.5632ZM20.0819 8.57189C19.8777 8.57189 19.433 8.68097 18.7456 9.41288C18.043 10.163 17.5552 11.4157 17.9765 12.3658C18.1829 12.825 18.459 13.1056 18.797 13.202C18.8832 13.2265 18.974 13.2392 19.067 13.2392C19.3226 13.2392 19.5064 13.1467 19.5079 13.1451C19.7597 12.9918 19.9639 12.7199 20.1129 12.5002C20.5999 11.7841 20.8835 11.2174 20.8956 10.4428C20.9077 9.6824 20.7519 8.8019 20.2755 8.60904C20.215 8.58454 20.1515 8.57268 20.0811 8.57268L20.0819 8.57189Z" fill="#E6E6E6"/>
<path id="Vector_2" d="M30.088 26.4514C29.2553 26.4514 28.4703 26.1408 27.9894 25.6207C27.6528 25.2571 27.4456 24.7718 27.3715 24.1774L27.224 23.0084C26.2038 14.9361 25.9618 13.0186 26.5094 6.38166C26.6629 4.52028 27.0161 2.41229 28.4658 0.898681C29.005 0.335919 29.694 0 30.3096 0C30.6257 0 30.9153 0.0853628 31.1717 0.253717C32.1253 0.880502 32.0792 2.30638 32.0595 2.91577C32.0126 4.34323 31.9665 5.77069 31.9211 7.19814C31.8984 7.87709 31.9325 8.61374 32.356 8.93069C32.4951 9.03502 32.6547 9.08561 32.843 9.08561C33.3588 9.08561 33.9902 8.70227 34.4213 8.41377C36.6129 6.94759 38.9709 5.75883 41.4295 4.87833C41.8674 4.72183 42.5284 4.5353 43.1954 4.5353C44.0817 4.5353 44.7434 4.87121 45.108 5.50669C45.4891 6.17221 45.4354 7.10567 44.9718 7.885C44.5793 8.54261 43.9857 9.01131 43.4623 9.42548L38.738 13.1617C37.311 14.2912 36.746 15.2634 37.0107 16.1352C37.2641 16.9698 38.2086 17.3745 39.1214 17.7657L39.2387 17.8163C40.8805 18.5229 42.3953 19.4967 43.7407 20.7116C44.5567 21.449 44.8902 22.1746 44.7306 22.8662C44.5445 23.6708 43.7656 24.0731 43.1205 24.1071C43.0804 24.1095 43.0419 24.1103 43.0025 24.1103C42.4036 24.1103 41.8493 23.8803 41.3607 23.6779C40.4033 23.2803 36.38 21.6094 36.38 21.6094C35.5118 21.249 34.77 21.0664 34.1748 21.0664C33.5796 21.0664 33.1069 21.2569 32.8014 21.649C32.4263 22.1295 32.4445 22.7745 32.4634 23.4558C32.4868 24.2715 32.5125 25.1955 31.7888 25.8586C31.3713 26.2412 30.7671 26.4514 30.088 26.4514Z" fill="#E6E6E6"/>
<path id="Vector_3" d="M11.863 47.7083C9.72582 47.7083 7.27404 47.3732 4.43506 46.9851C2.7834 46.7591 0.965359 46.401 0.284729 44.9933C-0.12138 44.1539 -0.150874 42.8798 0.578913 42.0704C1.02813 41.5725 1.70876 41.3496 2.85524 41.3274C2.91423 41.3267 2.9717 41.3259 3.02918 41.3259C4.38288 41.3259 5.34256 41.642 6.93297 42.1661C7.37614 42.3123 7.87905 42.4783 8.45456 42.6577C10.1092 43.1754 10.9699 43.3769 11.5242 43.3769C11.7337 43.3769 11.9053 43.3501 12.1186 43.2829C12.1852 43.2623 13.7574 42.7565 14.0342 41.4934C14.2603 40.4612 13.5268 39.4337 12.7493 38.9159C11.8562 38.3216 10.7725 38.101 9.55037 37.8924L9.24711 37.841C7.21278 37.4964 5.10888 37.1407 3.31126 36.0436C2.41132 35.4943 1.77985 34.8478 1.43575 34.123C1.30265 33.8424 0.940403 32.5556 1.60364 31.3787C2.13377 30.4382 3.03069 30.0714 3.98131 29.7505C7.05851 28.7096 9.66608 28.4305 9.77573 28.4187C11.7201 28.2171 13.0723 28.0844 14.1061 28.0844C15.1399 28.0844 16.2009 28.1911 16.6947 28.9822C17.097 29.6264 17.0963 30.6318 16.694 31.2704C16.5019 31.5747 16.1759 31.815 15.0022 32.215C14.5802 32.3588 14.2422 32.456 13.9442 32.5414C13.3959 32.6995 12.9997 32.8133 12.468 33.1113C12.0604 33.3405 11.8267 33.5373 11.8101 33.6661C11.7919 33.806 11.9091 33.9997 12.1564 34.2415C12.5512 34.6265 13.5026 35.4082 15.7895 36.9431C15.8447 36.9803 15.918 37.0301 15.918 37.0301C16.8203 37.6521 18.9325 39.1088 19.3008 41.2792C19.6449 43.3074 18.3933 45.0431 18.1392 45.3703C16.8845 46.9851 14.9493 47.7052 11.863 47.7052V47.7083Z" fill="#E6E6E6"/>
<path id="Vector_4" d="M28.3836 46.3741C28.2543 46.3741 28.1234 46.3631 27.9949 46.3409C26.5361 46.088 25.6928 44.5689 25.4145 43.3445C25.2603 42.6664 25.2096 41.9748 25.1612 41.3053C25.1166 40.6959 25.075 40.1205 24.9615 39.5538C24.7528 38.5049 24.3989 38.1437 24.2658 38.0078C24.2529 37.9951 24.2423 37.9833 24.2325 37.973C23.8423 37.5596 23.0694 37.1138 22.5014 37.1138C22.385 37.1138 22.2821 37.1328 22.1952 37.1699C21.9448 37.2767 21.8609 37.5319 21.7444 37.9406C21.6249 38.3603 21.476 38.8827 20.9504 39.0914C20.8233 39.1412 20.6879 39.1673 20.5465 39.1673C19.642 39.1673 18.646 38.1137 17.7665 37.1834C16.8121 36.1748 16.2858 35.6184 16.2109 34.8256C16.1572 34.2526 16.4279 33.2915 19.0227 30.9187C21.2309 28.9 22.9378 27.8765 24.0956 27.8765C24.3724 27.8765 24.5637 27.9334 24.684 27.9761C25.3767 28.2242 25.8516 28.7024 26.8378 30.8855L30.2205 38.3698C30.8263 39.7103 31.581 41.3796 31.4094 43.1122C31.2543 44.6882 30.002 46.3749 28.3843 46.3749L28.3836 46.3741ZM23.6827 32.158C23.3303 32.158 23.0089 32.3296 22.8833 32.5849C22.7449 32.867 22.872 33.2109 22.9741 33.4867C22.9771 33.4946 23.3137 34.3435 24.0979 34.6067C24.2265 34.6502 24.349 34.6731 24.4511 34.6731C24.5532 34.6731 24.6363 34.6494 24.69 34.6027C24.8519 34.462 24.8254 34.089 24.7846 33.7799C24.774 33.7009 24.7664 33.6211 24.7596 33.5404C24.7339 33.2614 24.7112 33.0204 24.5645 32.7706C24.4745 32.6165 24.287 32.2956 23.9413 32.1928C23.8612 32.1691 23.7735 32.1565 23.6819 32.1565L23.6827 32.158Z" fill="#E6E6E6"/>
<path id="Vector_5" d="M34.4276 46.8508C33.6479 46.8508 32.9604 46.5591 32.5422 46.0501C31.9508 45.33 32.1369 44.5388 32.3524 43.6236C32.4931 43.0252 32.6527 42.3479 32.6504 41.5251C32.6466 40.2715 32.2654 39.5625 31.6877 38.4891C31.1137 37.4221 30.3983 36.0935 29.7169 33.6812C29.1194 31.5653 29.099 30.5409 29.6382 29.7663C30.0821 29.1277 30.8429 28.7609 31.7255 28.7609C32.1339 28.7609 32.549 28.8416 32.9249 28.9941C33.995 29.428 34.7997 30.307 35.5098 31.0823L38.2187 34.0392C38.6626 34.5253 38.9409 34.6273 39.0959 34.6273C39.1451 34.6273 39.1905 34.617 39.2359 34.5957C39.406 34.5158 39.527 34.2724 39.6155 33.8298C39.7373 33.2259 39.8144 32.5928 39.8885 31.9802C40.0314 30.8049 40.1797 29.5893 40.6455 28.4622C41.221 27.0703 42.6375 25.661 44.2317 25.661C44.5675 25.661 44.8957 25.725 45.2072 25.8507C46.4785 26.3637 47.1047 27.7311 47.2673 28.8408C47.4836 30.3109 47.2401 31.4586 46.9943 32.4189C46.6207 33.8796 45.627 37.7604 45.6413 41.3931C45.6436 41.9519 45.6693 42.449 45.692 42.8877C45.7608 44.214 45.8107 45.1727 45.0673 45.9513C44.5614 46.4816 43.7666 46.8247 43.0413 46.8247C42.6798 46.8247 42.3539 46.7441 42.0718 46.5852C41.4169 46.2169 41.2619 45.5782 41.097 44.9024C40.9457 44.2828 40.7748 43.5801 40.1887 42.8458C39.6987 42.2309 38.9265 41.5946 38.4819 41.5946C38.4304 41.5946 38.3888 41.6033 38.3541 41.6215C37.8708 41.8744 37.7952 42.5858 37.715 43.3398C37.6946 43.5311 37.6742 43.7279 37.6454 43.9168C37.526 44.7104 36.6147 46.4216 35.0515 46.782C34.8534 46.8278 34.6439 46.8508 34.4268 46.8508H34.4276Z" fill="#E6E6E6"/>
<path id="Vector_6" d="M52.8862 31.9075C52.3961 31.9075 51.9409 31.7708 51.5703 31.5115C50.3565 30.6642 50.3232 28.8589 50.9086 27.5896C51.2315 26.8885 51.7072 26.4972 51.8456 26.3937C52.0233 26.2633 52.6578 25.8444 53.4753 25.8444C53.6734 25.8444 53.8693 25.8697 54.0591 25.9187C55.372 26.2617 56.2908 27.7223 56.1078 29.1751C55.9853 30.1528 55.3546 30.9883 54.3314 31.5281L54.3148 31.5368C53.8618 31.7779 53.3672 31.9059 52.8862 31.9059V31.9075Z" fill="#E6E6E6"/>
<path id="Vector_7" d="M50.1802 48.0001C50.0078 48.0001 49.8384 47.9708 49.6622 47.9115C48.4355 47.4966 48.1429 45.6044 48.0332 44.8922C47.8184 43.4987 48.0332 42.7447 48.5028 41.0928C48.7554 40.2052 49.0693 39.101 49.4421 37.4807C49.4814 37.3099 49.5177 37.1471 49.5533 36.9914C49.8981 35.4644 50.1061 34.542 50.9841 33.9602C51.4295 33.6662 51.996 33.4971 52.539 33.4971C53.029 33.4971 53.4798 33.6314 53.8428 33.8867C54.4909 34.3412 54.872 35.1079 54.9174 36.0445C55.0172 38.1462 55.1208 40.319 54.6444 42.4333C54.1029 44.8345 52.8203 46.7631 51.1248 47.7242C50.8026 47.9068 50.485 47.9993 50.181 47.9993L50.1802 48.0001Z" fill="#E6E6E6"/>
<path id="Vector_8" d="M54.9105 22.5437C54.7941 22.5437 54.6776 22.5294 54.5642 22.5026C53.3474 22.207 53.0728 20.7186 52.8717 19.6318L52.8384 19.4524C52.6909 18.6707 52.3491 17.614 51.5573 17.0196C51.2404 16.7825 50.8275 16.6457 50.4244 16.6457C49.9692 16.6457 49.5812 16.8133 49.3316 17.1168C49.0654 17.4409 48.952 17.8938 48.8325 18.3727C48.797 18.5158 48.7599 18.6636 48.7183 18.809C48.4423 19.7773 47.9242 20.3875 47.2595 20.5266C47.1536 20.5487 47.0455 20.5598 46.9366 20.5598C46.5358 20.5598 46.1932 20.4088 45.9701 20.295C43.5954 19.0904 42.1639 18.364 41.7683 16.7287C41.6269 16.1438 41.6609 15.5471 41.8901 14.6018C42.3506 12.6969 43.3383 10.8972 47.7095 5.82124C48.5285 4.86961 49.1834 4.19145 50.1605 4.12742C50.2059 4.12426 50.2512 4.12268 50.2959 4.12268C51.2971 4.12268 52.2228 4.81744 53.125 6.24727C55.5307 10.0601 56.8685 14.4895 56.994 19.0549C57.0137 19.7725 57.0046 20.5993 56.6446 21.3351C56.2915 22.0576 55.5942 22.5429 54.909 22.5429L54.9105 22.5437ZM50.1945 10.1874C50.0024 10.1874 49.8051 10.2198 49.6379 10.2775C49.1721 10.4403 48.8053 10.86 48.7039 11.3453C48.6124 11.7856 48.6956 12.3776 48.9611 12.5222C49.0095 12.5483 49.0632 12.561 49.1252 12.561C49.2764 12.561 49.613 12.4827 50.1681 11.9587C50.6006 11.55 51.099 10.8007 50.9077 10.4569C50.8147 10.2901 50.5409 10.1866 50.193 10.1866L50.1945 10.1874Z" fill="#E6E6E6"/>
<path id="Vector_9" d="M7.40924 26.6356C4.63378 26.6356 2.86868 26.5383 1.74791 25.1907C0.688397 23.9158 0.751166 22.2394 0.788979 21.2387C1.04081 14.5085 1.63825 9.46024 2.56618 6.23384C3.36176 3.46666 4.2375 2.58853 4.82738 2.16883C5.66985 1.56892 6.57131 1.42902 6.60912 1.42348C6.7944 1.39582 6.98573 1.38159 7.17707 1.38159C8.35002 1.38159 9.59633 1.92143 10.4297 2.79008C11.6987 4.11241 12.0768 6.14136 11.5875 8.99232C11.4295 9.9163 11.1875 10.8292 10.953 11.7113C10.6717 12.772 10.3806 13.8683 10.2452 14.963C10.1121 16.0435 9.98656 18.7261 11.6995 20.2887C12.5556 21.0704 13.6763 21.4347 15.2251 21.4347C16.355 21.4347 17.5347 21.2411 18.6759 21.0538L18.9172 21.0143C19.0495 20.9921 19.1925 20.9811 19.3407 20.9811C20.1287 20.9811 21.0612 21.2972 21.3697 22.0038C21.7388 22.8511 21.0317 23.8462 20.7995 24.1735C19.9169 25.4104 18.176 26.6166 7.6346 26.6356H7.41075H7.40924Z" fill="#E6E6E6"/>
</g>
</svg>
